<svg width="57" height="57" fill="none" xmlns="http://www.w3.org/2000/svg"><path d="M55.304 51.424L43.272 39.392a23.9 23.9 0 003.648-6.72A24.736 24.736 0 0048.2 24.8c0-4.352-1.088-8.384-3.264-12.096a23.96 23.96 0 00-8.64-8.64C32.584 1.888 28.552.8 24.2.8s-8.384 1.088-12.096 3.264a23.96 23.96 0 00-8.64 8.64C1.288 16.416.2 20.448.2 24.8s1.088 8.384 3.264 12.096a23.96 23.96 0 008.64 8.64C15.816 47.712 19.848 48.8 24.2 48.8c2.688 0 5.29-.448 7.808-1.344a22.686 22.686 0 006.72-3.584l12.096 12.032c.597.597 1.344.896 2.24.896.896 0 1.643-.32 2.24-.96a2.963 2.963 0 00.896-2.176c0-.853-.299-1.6-.896-2.24zM6.6 24.8c0-3.2.79-6.144 2.368-8.832a17.7 17.7 0 016.4-6.4C18.056 7.989 21 7.2 24.2 7.2c3.2 0 6.144.79 8.832 2.368a17.7 17.7 0 016.4 6.4C41.011 18.656 41.8 21.6 41.8 24.8c0 3.2-.79 6.144-2.368 8.832a17.7 17.7 0 01-6.4 6.4C30.344 41.611 27.4 42.4 24.2 42.4c-3.2 0-6.144-.79-8.832-2.368a17.7 17.7 0 01-6.4-6.4C7.389 30.944 6.6 28 6.6 24.8z" fill="#166DE0"/></svg>